<mxfile host="app.diagrams.net" modified="2024-01-12T03:20:38.008Z" agent="Mozilla/5.0 (Macintosh; Intel Mac OS X 10_15_7) AppleWebKit/605.1.15 (KHTML, like Gecko) Version/16.5.1 Safari/605.1.15" etag="indSbvKhEwPcnXUE9KFY" version="22.1.17" type="github">
  <diagram name="Page-1" id="02jxmK0VrBwMJrdBTE4Q">
    <mxGraphModel dx="2298" dy="1787" grid="1" gridSize="10" guides="1" tooltips="1" connect="1" arrows="1" fold="1" page="1" pageScale="1" pageWidth="850" pageHeight="1100" math="0" shadow="0">
      <root>
        <mxCell id="0" />
        <mxCell id="1" parent="0" />
        <mxCell id="FmBObRWss5xJjDhJDEF3-1" value="" style="points=[[0,0],[0.25,0],[0.5,0],[0.75,0],[1,0],[1,0.25],[1,0.5],[1,0.75],[1,1],[0.75,1],[0.5,1],[0.25,1],[0,1],[0,0.75],[0,0.5],[0,0.25]];outlineConnect=0;gradientColor=none;html=1;whiteSpace=wrap;fontSize=12;fontStyle=0;container=1;pointerEvents=0;collapsible=0;recursiveResize=0;shape=mxgraph.aws4.group;grIcon=mxgraph.aws4.group_vpc2;strokeColor=#8C4FFF;fillColor=none;verticalAlign=top;align=left;spacingLeft=30;fontColor=#AAB7B8;dashed=0;" vertex="1" parent="1">
          <mxGeometry x="10" y="40" width="820" height="500" as="geometry" />
        </mxCell>
        <mxCell id="FmBObRWss5xJjDhJDEF3-2" value="Availability zone" style="sketch=0;outlineConnect=0;gradientColor=none;html=1;whiteSpace=wrap;fontSize=12;fontStyle=0;shape=mxgraph.aws4.group;grIcon=mxgraph.aws4.group_availability_zone;strokeColor=#545B64;fillColor=none;verticalAlign=top;align=left;spacingLeft=30;fontColor=#545B64;dashed=1;" vertex="1" parent="FmBObRWss5xJjDhJDEF3-1">
          <mxGeometry x="30" y="80" width="200" height="410" as="geometry" />
        </mxCell>
        <mxCell id="FmBObRWss5xJjDhJDEF3-12" value="Availability zone" style="sketch=0;outlineConnect=0;gradientColor=none;html=1;whiteSpace=wrap;fontSize=12;fontStyle=0;shape=mxgraph.aws4.group;grIcon=mxgraph.aws4.group_availability_zone;strokeColor=#545B64;fillColor=none;verticalAlign=top;align=left;spacingLeft=30;fontColor=#545B64;dashed=1;" vertex="1" parent="FmBObRWss5xJjDhJDEF3-1">
          <mxGeometry x="310" y="80" width="200" height="410" as="geometry" />
        </mxCell>
        <mxCell id="FmBObRWss5xJjDhJDEF3-13" value="Availability zone" style="sketch=0;outlineConnect=0;gradientColor=none;html=1;whiteSpace=wrap;fontSize=12;fontStyle=0;shape=mxgraph.aws4.group;grIcon=mxgraph.aws4.group_availability_zone;strokeColor=#545B64;fillColor=none;verticalAlign=top;align=left;spacingLeft=30;fontColor=#545B64;dashed=1;" vertex="1" parent="FmBObRWss5xJjDhJDEF3-1">
          <mxGeometry x="590" y="80" width="200" height="410" as="geometry" />
        </mxCell>
        <mxCell id="FmBObRWss5xJjDhJDEF3-14" value="Private subnet" style="points=[[0,0],[0.25,0],[0.5,0],[0.75,0],[1,0],[1,0.25],[1,0.5],[1,0.75],[1,1],[0.75,1],[0.5,1],[0.25,1],[0,1],[0,0.75],[0,0.5],[0,0.25]];outlineConnect=0;gradientColor=none;html=1;whiteSpace=wrap;fontSize=12;fontStyle=0;container=1;pointerEvents=0;collapsible=0;recursiveResize=0;shape=mxgraph.aws4.group;grIcon=mxgraph.aws4.group_security_group;grStroke=0;strokeColor=#00A4A6;fillColor=#E6F6F7;verticalAlign=top;align=left;spacingLeft=30;fontColor=#147EBA;dashed=0;" vertex="1" parent="FmBObRWss5xJjDhJDEF3-1">
          <mxGeometry x="70" y="320" width="120" height="120" as="geometry" />
        </mxCell>
        <mxCell id="FmBObRWss5xJjDhJDEF3-45" value="" style="sketch=0;outlineConnect=0;fontColor=#232F3E;gradientColor=none;fillColor=#C925D1;strokeColor=none;dashed=0;verticalLabelPosition=bottom;verticalAlign=top;align=center;html=1;fontSize=12;fontStyle=0;aspect=fixed;pointerEvents=1;shape=mxgraph.aws4.rds_mysql_instance;" vertex="1" parent="FmBObRWss5xJjDhJDEF3-14">
          <mxGeometry y="40" width="40" height="40" as="geometry" />
        </mxCell>
        <mxCell id="FmBObRWss5xJjDhJDEF3-18" value="Public subnet" style="points=[[0,0],[0.25,0],[0.5,0],[0.75,0],[1,0],[1,0.25],[1,0.5],[1,0.75],[1,1],[0.75,1],[0.5,1],[0.25,1],[0,1],[0,0.75],[0,0.5],[0,0.25]];outlineConnect=0;gradientColor=none;html=1;whiteSpace=wrap;fontSize=12;fontStyle=0;container=1;pointerEvents=0;collapsible=0;recursiveResize=0;shape=mxgraph.aws4.group;grIcon=mxgraph.aws4.group_security_group;grStroke=0;strokeColor=#7AA116;fillColor=#F2F6E8;verticalAlign=top;align=left;spacingLeft=30;fontColor=#248814;dashed=0;" vertex="1" parent="FmBObRWss5xJjDhJDEF3-1">
          <mxGeometry x="70" y="120" width="120" height="120" as="geometry" />
        </mxCell>
        <mxCell id="FmBObRWss5xJjDhJDEF3-25" value="" style="sketch=0;outlineConnect=0;fontColor=#232F3E;gradientColor=none;fillColor=#8C4FFF;strokeColor=none;dashed=0;verticalLabelPosition=bottom;verticalAlign=top;align=center;html=1;fontSize=12;fontStyle=0;aspect=fixed;pointerEvents=1;shape=mxgraph.aws4.nat_gateway;" vertex="1" parent="FmBObRWss5xJjDhJDEF3-18">
          <mxGeometry x="40" y="40" width="40" height="40" as="geometry" />
        </mxCell>
        <mxCell id="FmBObRWss5xJjDhJDEF3-19" value="Public subnet" style="points=[[0,0],[0.25,0],[0.5,0],[0.75,0],[1,0],[1,0.25],[1,0.5],[1,0.75],[1,1],[0.75,1],[0.5,1],[0.25,1],[0,1],[0,0.75],[0,0.5],[0,0.25]];outlineConnect=0;gradientColor=none;html=1;whiteSpace=wrap;fontSize=12;fontStyle=0;container=1;pointerEvents=0;collapsible=0;recursiveResize=0;shape=mxgraph.aws4.group;grIcon=mxgraph.aws4.group_security_group;grStroke=0;strokeColor=#7AA116;fillColor=#F2F6E8;verticalAlign=top;align=left;spacingLeft=30;fontColor=#248814;dashed=0;" vertex="1" parent="FmBObRWss5xJjDhJDEF3-1">
          <mxGeometry x="350" y="120" width="120" height="120" as="geometry" />
        </mxCell>
        <mxCell id="FmBObRWss5xJjDhJDEF3-22" value="Public subnet" style="points=[[0,0],[0.25,0],[0.5,0],[0.75,0],[1,0],[1,0.25],[1,0.5],[1,0.75],[1,1],[0.75,1],[0.5,1],[0.25,1],[0,1],[0,0.75],[0,0.5],[0,0.25]];outlineConnect=0;gradientColor=none;html=1;whiteSpace=wrap;fontSize=12;fontStyle=0;container=1;pointerEvents=0;collapsible=0;recursiveResize=0;shape=mxgraph.aws4.group;grIcon=mxgraph.aws4.group_security_group;grStroke=0;strokeColor=#7AA116;fillColor=#F2F6E8;verticalAlign=top;align=left;spacingLeft=30;fontColor=#248814;dashed=0;" vertex="1" parent="FmBObRWss5xJjDhJDEF3-1">
          <mxGeometry x="630" y="120" width="120" height="120" as="geometry" />
        </mxCell>
        <mxCell id="FmBObRWss5xJjDhJDEF3-42" value="Private subnet" style="points=[[0,0],[0.25,0],[0.5,0],[0.75,0],[1,0],[1,0.25],[1,0.5],[1,0.75],[1,1],[0.75,1],[0.5,1],[0.25,1],[0,1],[0,0.75],[0,0.5],[0,0.25]];outlineConnect=0;gradientColor=none;html=1;whiteSpace=wrap;fontSize=12;fontStyle=0;container=1;pointerEvents=0;collapsible=0;recursiveResize=0;shape=mxgraph.aws4.group;grIcon=mxgraph.aws4.group_security_group;grStroke=0;strokeColor=#00A4A6;fillColor=#E6F6F7;verticalAlign=top;align=left;spacingLeft=30;fontColor=#147EBA;dashed=0;" vertex="1" parent="FmBObRWss5xJjDhJDEF3-1">
          <mxGeometry x="625" y="320" width="125" height="120" as="geometry" />
        </mxCell>
        <mxCell id="FmBObRWss5xJjDhJDEF3-48" value="" style="sketch=0;outlineConnect=0;fontColor=#232F3E;gradientColor=none;fillColor=#C925D1;strokeColor=none;dashed=0;verticalLabelPosition=bottom;verticalAlign=top;align=center;html=1;fontSize=12;fontStyle=0;aspect=fixed;pointerEvents=1;shape=mxgraph.aws4.rds_mysql_instance;" vertex="1" parent="FmBObRWss5xJjDhJDEF3-42">
          <mxGeometry y="40" width="40" height="40" as="geometry" />
        </mxCell>
        <mxCell id="FmBObRWss5xJjDhJDEF3-43" value="Private subnet" style="points=[[0,0],[0.25,0],[0.5,0],[0.75,0],[1,0],[1,0.25],[1,0.5],[1,0.75],[1,1],[0.75,1],[0.5,1],[0.25,1],[0,1],[0,0.75],[0,0.5],[0,0.25]];outlineConnect=0;gradientColor=none;html=1;whiteSpace=wrap;fontSize=12;fontStyle=0;container=1;pointerEvents=0;collapsible=0;recursiveResize=0;shape=mxgraph.aws4.group;grIcon=mxgraph.aws4.group_security_group;grStroke=0;strokeColor=#00A4A6;fillColor=#E6F6F7;verticalAlign=top;align=left;spacingLeft=30;fontColor=#147EBA;dashed=0;" vertex="1" parent="FmBObRWss5xJjDhJDEF3-1">
          <mxGeometry x="350" y="320" width="120" height="120" as="geometry" />
        </mxCell>
        <mxCell id="FmBObRWss5xJjDhJDEF3-47" value="" style="sketch=0;outlineConnect=0;fontColor=#232F3E;gradientColor=none;fillColor=#C925D1;strokeColor=none;dashed=0;verticalLabelPosition=bottom;verticalAlign=top;align=center;html=1;fontSize=12;fontStyle=0;aspect=fixed;pointerEvents=1;shape=mxgraph.aws4.rds_mysql_instance;" vertex="1" parent="FmBObRWss5xJjDhJDEF3-43">
          <mxGeometry y="40" width="40" height="40" as="geometry" />
        </mxCell>
        <mxCell id="FmBObRWss5xJjDhJDEF3-50" value="Amazon EC2" style="sketch=0;outlineConnect=0;fontColor=#232F3E;gradientColor=none;strokeColor=#ffffff;fillColor=#232F3E;dashed=0;verticalLabelPosition=middle;verticalAlign=bottom;align=center;html=1;whiteSpace=wrap;fontSize=10;fontStyle=1;spacing=3;shape=mxgraph.aws4.productIcon;prIcon=mxgraph.aws4.ec2;" vertex="1" parent="FmBObRWss5xJjDhJDEF3-1">
          <mxGeometry x="140" y="370" width="40" height="70" as="geometry" />
        </mxCell>
        <mxCell id="FmBObRWss5xJjDhJDEF3-51" value="Amazon EC2" style="sketch=0;outlineConnect=0;fontColor=#232F3E;gradientColor=none;strokeColor=#ffffff;fillColor=#232F3E;dashed=0;verticalLabelPosition=middle;verticalAlign=bottom;align=center;html=1;whiteSpace=wrap;fontSize=10;fontStyle=1;spacing=3;shape=mxgraph.aws4.productIcon;prIcon=mxgraph.aws4.ec2;" vertex="1" parent="FmBObRWss5xJjDhJDEF3-1">
          <mxGeometry x="420" y="370" width="40" height="70" as="geometry" />
        </mxCell>
        <mxCell id="FmBObRWss5xJjDhJDEF3-52" value="Amazon EC2" style="sketch=0;outlineConnect=0;fontColor=#232F3E;gradientColor=none;strokeColor=#ffffff;fillColor=#232F3E;dashed=0;verticalLabelPosition=middle;verticalAlign=bottom;align=center;html=1;whiteSpace=wrap;fontSize=10;fontStyle=1;spacing=3;shape=mxgraph.aws4.productIcon;prIcon=mxgraph.aws4.ec2;" vertex="1" parent="FmBObRWss5xJjDhJDEF3-1">
          <mxGeometry x="700" y="370" width="40" height="70" as="geometry" />
        </mxCell>
        <mxCell id="FmBObRWss5xJjDhJDEF3-54" value="&lt;font style=&quot;font-size: 14px;&quot;&gt;ALB&lt;/font&gt;" style="sketch=0;outlineConnect=0;fontColor=#232F3E;gradientColor=none;strokeColor=#ffffff;fillColor=#232F3E;dashed=0;verticalLabelPosition=middle;verticalAlign=bottom;align=center;html=1;whiteSpace=wrap;fontSize=10;fontStyle=1;spacing=3;shape=mxgraph.aws4.productIcon;prIcon=mxgraph.aws4.application_load_balancer;" vertex="1" parent="FmBObRWss5xJjDhJDEF3-1">
          <mxGeometry x="385" width="50" height="70" as="geometry" />
        </mxCell>
        <mxCell id="FmBObRWss5xJjDhJDEF3-55" value="" style="endArrow=none;dashed=1;html=1;dashPattern=1 3;strokeWidth=2;rounded=0;" edge="1" parent="FmBObRWss5xJjDhJDEF3-1">
          <mxGeometry width="50" height="50" relative="1" as="geometry">
            <mxPoint x="190" y="130" as="sourcePoint" />
            <mxPoint x="390" y="40" as="targetPoint" />
            <Array as="points">
              <mxPoint x="190" y="40" />
            </Array>
          </mxGeometry>
        </mxCell>
        <mxCell id="FmBObRWss5xJjDhJDEF3-58" value="" style="endArrow=none;dashed=1;html=1;dashPattern=1 3;strokeWidth=2;rounded=0;exitX=0;exitY=0;exitDx=0;exitDy=0;" edge="1" parent="FmBObRWss5xJjDhJDEF3-1" source="FmBObRWss5xJjDhJDEF3-22">
          <mxGeometry width="50" height="50" relative="1" as="geometry">
            <mxPoint x="530" y="230" as="sourcePoint" />
            <mxPoint x="430" y="40" as="targetPoint" />
            <Array as="points">
              <mxPoint x="630" y="40" />
            </Array>
          </mxGeometry>
        </mxCell>
        <mxCell id="FmBObRWss5xJjDhJDEF3-129" value="" style="endArrow=classic;html=1;rounded=0;" edge="1" parent="FmBObRWss5xJjDhJDEF3-1" source="FmBObRWss5xJjDhJDEF3-25" target="FmBObRWss5xJjDhJDEF3-50">
          <mxGeometry width="50" height="50" relative="1" as="geometry">
            <mxPoint x="580" y="260" as="sourcePoint" />
            <mxPoint x="630" y="210" as="targetPoint" />
            <Array as="points" />
          </mxGeometry>
        </mxCell>
        <mxCell id="FmBObRWss5xJjDhJDEF3-134" value="" style="endArrow=none;dashed=1;html=1;dashPattern=1 3;strokeWidth=2;rounded=0;" edge="1" parent="FmBObRWss5xJjDhJDEF3-1" source="FmBObRWss5xJjDhJDEF3-54" target="FmBObRWss5xJjDhJDEF3-19">
          <mxGeometry width="50" height="50" relative="1" as="geometry">
            <mxPoint x="580" y="180" as="sourcePoint" />
            <mxPoint x="630" y="130" as="targetPoint" />
          </mxGeometry>
        </mxCell>
        <mxCell id="FmBObRWss5xJjDhJDEF3-36" style="edgeStyle=orthogonalEdgeStyle;rounded=0;orthogonalLoop=1;jettySize=auto;html=1;exitX=0.5;exitY=1;exitDx=0;exitDy=0;" edge="1" parent="1">
          <mxGeometry relative="1" as="geometry">
            <mxPoint x="565" y="390" as="sourcePoint" />
            <mxPoint x="565" y="390" as="targetPoint" />
          </mxGeometry>
        </mxCell>
        <mxCell id="FmBObRWss5xJjDhJDEF3-53" value="" style="image;points=[];aspect=fixed;html=1;align=center;shadow=0;dashed=0;image=img/lib/allied_telesis/computer_and_terminals/Personal_Computer.svg;" vertex="1" parent="1">
          <mxGeometry x="395" y="-170" width="45.6" height="61.800000000000004" as="geometry" />
        </mxCell>
        <mxCell id="FmBObRWss5xJjDhJDEF3-90" value="" style="shape=flexArrow;endArrow=classic;html=1;rounded=0;" edge="1" parent="1" source="FmBObRWss5xJjDhJDEF3-53" target="FmBObRWss5xJjDhJDEF3-98">
          <mxGeometry width="50" height="50" relative="1" as="geometry">
            <mxPoint x="540" y="270" as="sourcePoint" />
            <mxPoint x="300" y="-60" as="targetPoint" />
          </mxGeometry>
        </mxCell>
        <mxCell id="FmBObRWss5xJjDhJDEF3-98" value="" style="outlineConnect=0;dashed=0;verticalLabelPosition=bottom;verticalAlign=top;align=center;html=1;shape=mxgraph.aws3.route_53;fillColor=#F58536;gradientColor=none;" vertex="1" parent="1">
          <mxGeometry x="390.17" y="-50" width="55.25" height="40" as="geometry" />
        </mxCell>
        <mxCell id="FmBObRWss5xJjDhJDEF3-99" value="" style="shape=flexArrow;endArrow=classic;html=1;rounded=0;exitX=0.5;exitY=1;exitDx=0;exitDy=0;exitPerimeter=0;" edge="1" parent="1" source="FmBObRWss5xJjDhJDEF3-98" target="FmBObRWss5xJjDhJDEF3-1">
          <mxGeometry width="50" height="50" relative="1" as="geometry">
            <mxPoint x="540" y="230" as="sourcePoint" />
            <mxPoint x="590" y="180" as="targetPoint" />
          </mxGeometry>
        </mxCell>
        <mxCell id="FmBObRWss5xJjDhJDEF3-111" value="Region" style="points=[[0,0],[0.25,0],[0.5,0],[0.75,0],[1,0],[1,0.25],[1,0.5],[1,0.75],[1,1],[0.75,1],[0.5,1],[0.25,1],[0,1],[0,0.75],[0,0.5],[0,0.25]];outlineConnect=0;gradientColor=none;html=1;whiteSpace=wrap;fontSize=12;fontStyle=0;container=1;pointerEvents=0;collapsible=0;recursiveResize=0;shape=mxgraph.aws4.group;grIcon=mxgraph.aws4.group_region;strokeColor=#00A4A6;fillColor=none;verticalAlign=top;align=left;spacingLeft=30;fontColor=#147EBA;dashed=1;" vertex="1" parent="1">
          <mxGeometry x="-80" y="-10" width="1000" height="600" as="geometry" />
        </mxCell>
        <mxCell id="FmBObRWss5xJjDhJDEF3-112" value="&lt;b&gt;VPC&lt;/b&gt;" style="text;html=1;strokeColor=none;fillColor=none;align=center;verticalAlign=middle;whiteSpace=wrap;rounded=0;" vertex="1" parent="FmBObRWss5xJjDhJDEF3-111">
          <mxGeometry x="100" y="50" width="60" height="30" as="geometry" />
        </mxCell>
        <mxCell id="FmBObRWss5xJjDhJDEF3-101" value="" style="points=[[0,0],[0.25,0],[0.5,0],[0.75,0],[1,0],[1,0.25],[1,0.5],[1,0.75],[1,1],[0.75,1],[0.5,1],[0.25,1],[0,1],[0,0.75],[0,0.5],[0,0.25]];outlineConnect=0;gradientColor=none;html=1;whiteSpace=wrap;fontSize=12;fontStyle=0;container=1;pointerEvents=0;collapsible=0;recursiveResize=0;shape=mxgraph.aws4.groupCenter;grIcon=mxgraph.aws4.group_auto_scaling_group;grStroke=1;strokeColor=#D86613;fillColor=none;verticalAlign=top;align=center;fontColor=#D86613;dashed=1;spacingTop=25;direction=west;" vertex="1" parent="FmBObRWss5xJjDhJDEF3-111">
          <mxGeometry x="140" y="370" width="730" height="150" as="geometry" />
        </mxCell>
        <mxCell id="FmBObRWss5xJjDhJDEF3-103" value="&lt;span style=&quot;caret-color: rgb(216, 102, 19); color: rgb(216, 102, 19); font-family: Helvetica; font-size: 12.000001px; font-style: normal; font-variant-caps: normal; letter-spacing: normal; text-align: center; text-indent: 0px; text-transform: none; word-spacing: 0px; -webkit-text-stroke-width: 0px; background-color: rgb(251, 251, 251); text-decoration: none; float: none; display: inline !important;&quot;&gt;&lt;b&gt;ASG&lt;/b&gt;&lt;/span&gt;" style="text;whiteSpace=wrap;html=1;" vertex="1" parent="FmBObRWss5xJjDhJDEF3-101">
          <mxGeometry x="345" y="150" width="30" height="30" as="geometry" />
        </mxCell>
        <mxCell id="FmBObRWss5xJjDhJDEF3-107" value="&lt;b&gt;private RT&lt;/b&gt;" style="text;html=1;strokeColor=none;fillColor=none;align=center;verticalAlign=middle;whiteSpace=wrap;rounded=0;" vertex="1" parent="FmBObRWss5xJjDhJDEF3-111">
          <mxGeometry x="520" y="335" width="70" height="20" as="geometry" />
        </mxCell>
        <mxCell id="FmBObRWss5xJjDhJDEF3-119" value="" style="outlineConnect=0;dashed=0;verticalLabelPosition=bottom;verticalAlign=top;align=center;html=1;shape=mxgraph.aws3.route_table;fillColor=#F58536;gradientColor=none;" vertex="1" parent="FmBObRWss5xJjDhJDEF3-111">
          <mxGeometry x="480" y="335" width="40" height="25" as="geometry" />
        </mxCell>
        <mxCell id="FmBObRWss5xJjDhJDEF3-106" value="&lt;b&gt;public RT&lt;/b&gt;" style="text;html=1;strokeColor=none;fillColor=none;align=center;verticalAlign=middle;whiteSpace=wrap;rounded=0;" vertex="1" parent="FmBObRWss5xJjDhJDEF3-111">
          <mxGeometry x="520" y="290" width="60" height="30" as="geometry" />
        </mxCell>
        <mxCell id="FmBObRWss5xJjDhJDEF3-120" value="" style="outlineConnect=0;dashed=0;verticalLabelPosition=bottom;verticalAlign=top;align=center;html=1;shape=mxgraph.aws3.route_table;fillColor=#F58536;gradientColor=none;" vertex="1" parent="FmBObRWss5xJjDhJDEF3-111">
          <mxGeometry x="480" y="295" width="40" height="25" as="geometry" />
        </mxCell>
        <mxCell id="FmBObRWss5xJjDhJDEF3-130" value="&lt;b&gt;NAT&lt;/b&gt;" style="text;html=1;strokeColor=none;fillColor=none;align=center;verticalAlign=middle;whiteSpace=wrap;rounded=0;" vertex="1" parent="FmBObRWss5xJjDhJDEF3-111">
          <mxGeometry x="190" y="190" width="60" height="20" as="geometry" />
        </mxCell>
        <mxCell id="FmBObRWss5xJjDhJDEF3-24" value="" style="sketch=0;outlineConnect=0;fontColor=#232F3E;gradientColor=none;fillColor=#8C4FFF;strokeColor=none;dashed=0;verticalLabelPosition=bottom;verticalAlign=top;align=center;html=1;fontSize=12;fontStyle=0;aspect=fixed;pointerEvents=1;shape=mxgraph.aws4.internet_gateway;" vertex="1" parent="FmBObRWss5xJjDhJDEF3-111">
          <mxGeometry x="330" y="20" width="50" height="50" as="geometry" />
        </mxCell>
        <mxCell id="FmBObRWss5xJjDhJDEF3-133" value="" style="endArrow=classic;html=1;rounded=0;" edge="1" parent="FmBObRWss5xJjDhJDEF3-111" source="FmBObRWss5xJjDhJDEF3-24" target="FmBObRWss5xJjDhJDEF3-120">
          <mxGeometry width="50" height="50" relative="1" as="geometry">
            <mxPoint x="670" y="220" as="sourcePoint" />
            <mxPoint x="720" y="180" as="targetPoint" />
            <Array as="points">
              <mxPoint x="355" y="308" />
            </Array>
          </mxGeometry>
        </mxCell>
        <mxCell id="FmBObRWss5xJjDhJDEF3-135" value="" style="sketch=0;outlineConnect=0;fontColor=#232F3E;gradientColor=none;fillColor=#7AA116;strokeColor=none;dashed=0;verticalLabelPosition=bottom;verticalAlign=top;align=center;html=1;fontSize=12;fontStyle=0;aspect=fixed;pointerEvents=1;shape=mxgraph.aws4.bucket;" vertex="1" parent="FmBObRWss5xJjDhJDEF3-111">
          <mxGeometry x="610" y="140" width="57.7" height="60" as="geometry" />
        </mxCell>
        <mxCell id="FmBObRWss5xJjDhJDEF3-136" value="&lt;b&gt;S3&lt;/b&gt;" style="text;html=1;strokeColor=none;fillColor=none;align=center;verticalAlign=middle;whiteSpace=wrap;rounded=0;" vertex="1" parent="FmBObRWss5xJjDhJDEF3-111">
          <mxGeometry x="607.7" y="160" width="60" height="30" as="geometry" />
        </mxCell>
        <mxCell id="FmBObRWss5xJjDhJDEF3-128" value="&lt;b&gt;Route 53&lt;/b&gt;" style="text;html=1;strokeColor=none;fillColor=none;align=center;verticalAlign=middle;whiteSpace=wrap;rounded=0;" vertex="1" parent="1">
          <mxGeometry x="445.41999999999996" y="-45" width="60" height="30" as="geometry" />
        </mxCell>
      </root>
    </mxGraphModel>
  </diagram>
</mxfile>
